<svg width="123" height="34" viewBox="0 0 123 34" fill="none" xmlns="http://www.w3.org/2000/svg">
<path d="M117.094 22.9635C116.631 22.8943 115.802 23.13 114.931 23.4807C111.034 21.2513 109.655 20.3623 105.62 17.4527C108.311 14.6557 110.323 12.5553 112.289 10.6379C113.021 10.7528 113.626 10.8372 113.803 10.8361C114.317 10.8361 114.483 10.7164 114.571 10.5124C114.721 10.1676 114.538 9.86853 114.007 9.63398C113.477 9.39943 110.117 8.85293 108.992 9.07575C107.867 9.29857 108.463 9.87205 108.811 10.0011C108.93 10.0444 109.489 10.1559 110.195 10.2837L104.351 15.5751C104.278 11.3614 104.178 6.973 104.058 2.45204C104.315 2.37464 104.552 2.30193 104.757 2.24095C106.045 1.85863 105.659 1.14794 104.771 1.01894C103.883 0.889934 101.205 1.4423 99.8663 1.99936C98.5278 2.55642 98.8945 3.14748 99.9229 3.2976C100.238 3.34333 100.693 3.2976 101.21 3.20143C101.3 11.4729 101.399 19.3127 101.656 26.4337C101.101 26.5263 100.66 26.6319 100.468 26.7456C99.7413 27.1772 100.194 27.6721 100.692 27.9301C101.191 28.1881 105.347 27.6768 106.184 27.2921C107.021 26.9075 106.953 26.0455 106.189 26.0291C105.928 26.0232 105.265 26.0549 104.475 26.1159C104.463 24.0366 104.442 21.8939 104.412 19.6985C108.738 22.125 110.126 22.7981 112.984 24.413C112.553 24.6558 112.191 24.8892 111.961 25.0768C110.948 25.9048 111.907 26.2566 112.411 26.1569C113.302 25.9798 116.289 24.8587 117.434 24.2336C118.578 23.6085 117.739 23.0608 117.089 22.9647L117.094 22.9635Z" fill="#1B1B1B"/>
<path d="M81.237 12.0385C80.658 11.9191 77.1948 12.0767 76.1208 12.5215C75.0469 12.9663 75.7641 13.3984 76.1377 13.4517C76.2434 13.4667 76.659 13.4644 77.2128 13.4517C76.7743 17.7689 76.5605 21.3529 76.444 23.3975C75.5154 23.4299 74.6877 23.504 74.397 23.6511C73.6835 24.0125 74.0643 24.5384 74.5075 24.8361C74.9508 25.1327 78.8669 24.9925 79.679 24.6879C80.491 24.3832 80.4995 23.5283 79.7895 23.4461C79.5925 23.4229 79.1432 23.4009 78.5822 23.3893C79.1432 20.139 79.4748 17.0102 79.7967 13.3555C80.5235 13.3185 81.1181 13.2768 81.2899 13.242C81.8016 13.1366 81.9422 12.9883 81.9866 12.7729C82.0623 12.4091 81.8173 12.1578 81.2382 12.0385H81.237Z" fill="#1B1B1B"/>
<path d="M78.5701 27.6267C78.2845 26.9793 77.4371 26.5061 77.3317 27.7455C77.3186 27.9021 77.2961 28.2081 77.2795 28.5918C75.3881 28.626 70.0173 28.7343 66.2037 28.9497C67.1553 21.2471 68.2409 14.1049 69.3169 5.57962C69.9853 5.51253 70.5459 5.42779 70.8184 5.33009C71.6918 5.01936 71.7001 4.15188 70.9369 4.06831C70.1737 3.98474 65.911 3.91059 65.1454 4.27782C64.3799 4.64506 63.9331 5.55373 65.2639 5.71734C65.5104 5.74794 65.988 5.755 66.5675 5.74206C66.0212 9.24374 63.9805 22.3006 62.8546 29.2345C62.5513 29.2804 62.3285 29.3298 62.2111 29.3816C60.8779 29.9701 60.4833 31.5332 61.858 31.6251C63.1533 31.711 74.2658 30.707 77.2712 30.4504C77.2831 30.7093 77.3032 30.96 77.3328 31.1896C77.7713 32.7515 78.7644 31.658 78.9422 31.1896C79.12 30.7211 78.8569 28.274 78.5713 27.6267H78.5701Z" fill="#1B1B1B"/>
<path d="M96.7882 29.6373C96.7422 29.629 96.6997 29.6219 96.6548 29.6136C98.2055 20.9491 99.0527 15.9072 95.5617 15.287C93.1248 14.853 89.843 18.3475 88.4935 19.9365C88.782 18.1685 89.0625 16.3803 89.3337 14.5708C89.7855 14.4439 90.2005 14.3242 90.5441 14.2281C92.1178 13.7882 91.5557 13.0957 90.428 13.008C89.3004 12.919 86.0014 13.5902 84.3829 14.208C82.7644 14.8258 83.2897 15.3985 84.5967 15.5017C85.022 15.5349 85.6347 15.4578 86.3209 15.3238L86.252 15.3866C85.314 19.8072 84.6013 23.8756 84.568 26.8768C84.0714 26.8886 83.5679 26.9337 82.9955 27.0309C81.377 27.3037 82.077 27.8337 82.6943 28.0993C83.3104 28.3649 86.4934 28.5333 87.4923 28.4764C88.4912 28.4207 89.5188 27.1934 87.598 27.0416C87.4842 27.0321 87.375 27.0238 87.267 27.0155C87.4865 25.8203 87.7015 24.6131 87.9118 23.3965C89.213 21.6096 92.6052 17.2329 94.5869 17.253C95.4502 17.2613 94.111 24.0392 92.7328 29.1487C92.5638 29.1523 92.3914 29.1582 92.2098 29.1689C90.5763 29.2685 91.2292 29.8448 91.8201 30.159C92.4109 30.4732 95.564 30.9523 96.5629 30.9985C97.5618 31.0448 98.6871 29.9752 96.7893 29.6396L96.7882 29.6373Z" fill="#1B1B1B"/>
<path d="M25.8735 29.6053C25.8244 29.5993 25.7777 29.5933 25.7299 29.5872C26.9645 20.6964 27.6235 15.5271 23.8707 15.0671C21.2518 14.7459 17.92 18.4613 16.5578 20.1446C16.7799 18.3321 16.9922 16.4992 17.1947 14.6457C17.6708 14.4935 18.1077 14.3522 18.4685 14.2375C20.1252 13.7135 19.4932 13.0361 18.2857 13.0011C17.0781 12.966 13.5928 13.8113 11.8969 14.5189C10.2009 15.2265 10.7887 15.7843 12.1877 15.8242C12.643 15.8375 13.2934 15.7288 14.0187 15.5585L13.9475 15.6261C13.1609 20.17 12.5988 24.3419 12.708 27.3968C12.1791 27.4331 11.644 27.5043 11.0378 27.6311C9.32586 27.9885 10.0978 28.4932 10.7678 28.7323C11.4379 28.9714 14.8397 28.9859 15.9024 28.8808C16.9652 28.7746 18.001 27.4753 15.9466 27.4161C15.8251 27.4125 15.7073 27.4089 15.592 27.4053C15.7687 26.1785 15.9393 24.9408 16.1049 23.6922C17.4058 21.8109 20.8113 17.1923 22.9257 17.1138C23.8474 17.08 22.7466 24.04 21.5243 29.3059C21.3451 29.318 21.161 29.3324 20.9683 29.353C19.2318 29.5341 19.9547 30.0883 20.6002 30.3793C21.2457 30.6703 24.6315 31.0012 25.698 31C26.7644 30.9976 27.9131 29.8541 25.8735 29.6065V29.6053Z" fill="#1B1B1B"/>
<path d="M6.91868 4.01655C5.69352 3.87084 1.94177 4.7214 0.934528 5.23672C-0.0727172 5.75322 -0.255522 6.4249 0.548337 6.61208C0.864312 6.68552 1.26503 6.68197 2.89454 6.53744C3.02892 14.0539 2.98897 23.5452 3.07492 29.6828C1.51079 29.7728 1.33888 29.8285 0.520492 30.0346C-0.628397 30.3249 0.347373 31.814 1.30498 31.9111C3.78557 32.1622 6.52159 31.8412 8.75157 31.4479C10.829 31.0819 9.96705 29.9849 8.66804 29.7029C8.27216 29.6176 7.81576 29.5596 6.81335 29.5584C6.4199 22.3298 6.18988 14.7896 6.00828 6.19035C7.39446 6.0245 7.85329 5.90722 8.34117 5.7852C9.79151 5.42389 8.14263 4.15989 6.91626 4.01418L6.91868 4.01655Z" fill="#1B1B1B"/>
<path d="M78.4401 4.26013C80.0512 2.97196 78.4639 1.35488 79.7176 1.53482C80.7805 1.68735 79.3922 3.50581 79.7605 3.73938C80.1775 4.00392 81.3525 3.55586 82.1688 2.4369C82.1688 2.4369 82.935 1.36799 83.2723 0.650617C83.6095 -0.0667573 84.191 -0.0786724 84.4103 0.154891C84.6295 0.388455 84.7964 1.1809 83.9122 1.909C83.4164 2.31774 83.1364 2.41307 82.6431 2.99817C82.0234 3.73342 82.0258 4.23987 82.3583 4.41028C82.6907 4.58068 83.5725 4.72845 83.9503 4.23391C84.4127 3.62975 84.7916 4.28516 84.6701 4.58545C84.4603 5.10382 83.9026 4.92626 83.022 5.24205C82.257 5.51732 81.9888 6.04523 81.9805 6.39438C81.9614 7.16419 82.6752 6.64701 83.2139 6.67918C83.7525 6.71136 84.1755 7.37153 83.4879 7.47044C82.8004 7.56935 81.9281 7.02238 81.6159 7.81125C81.4907 8.12704 81.3597 8.60608 81.5968 8.99575C81.9293 9.54272 81.4049 9.9598 80.9223 9.54987C80.5803 9.25911 80.4147 9.16973 80.0655 8.99814C79.8606 8.89804 79.4018 8.80032 79.0645 8.96596C78.5509 9.21621 78.4401 9.91094 78.0755 10.1421C77.8538 10.2827 77.5797 10.1302 77.5082 9.76556C77.4367 9.40092 77.8824 9.21383 77.6834 8.78602C77.5368 8.47024 77.2806 8.19139 76.8588 8.1616C76.4369 8.13181 75.9484 8.18066 75.3716 8.40589C74.7948 8.63111 74.6006 9.08274 74.0477 8.94809C73.2028 8.74193 73.1611 7.87084 74.1108 7.50142C74.597 7.31195 75.7053 7.45852 76.1188 7.19517C76.4655 6.97352 76.7766 6.69825 77.0066 6.32765C77.2365 5.95704 77.3295 5.52566 77.1043 5.03351C76.879 4.54136 76.6753 4.45437 75.9567 4.1219C75.2381 3.78943 75.5218 2.73601 76.3178 3.34733C76.7551 3.68337 76.7778 4.09926 77.2163 4.41505C77.5654 4.66529 77.9086 4.67959 78.4377 4.25775L78.4401 4.26013Z" fill="#2D4AB4"/>
<path d="M81.3533 10.2053C81.2711 10.3888 81.4427 10.6188 81.6012 10.7177C81.7799 10.8309 81.9217 10.8977 82.0993 10.8965C82.1482 10.8965 82.1994 10.8905 82.2375 10.8583C82.278 10.825 82.2971 10.7666 82.3007 10.7106C82.3138 10.5247 82.1625 10.284 82.0278 10.1815C81.8669 10.0587 81.7704 10.0301 81.6191 10.0468C81.4963 10.0611 81.3867 10.129 81.3521 10.2053H81.3533Z" fill="#2D4AB4"/>
<path d="M84.1295 6.63787C84.3131 6.66051 84.5061 6.68315 84.6765 6.61285C84.8469 6.54254 84.9816 6.34592 84.9148 6.17313C84.8612 6.03132 84.6908 5.95982 84.5407 5.9765C84.3905 5.99319 84.2559 6.07779 84.1355 6.17074C84.0437 6.24224 83.9496 6.33281 83.9436 6.4484C83.9377 6.56399 84.0271 6.61046 84.1295 6.63906V6.63787Z" fill="#2D4AB4"/>
<path d="M79.3799 0.929609C79.3906 1.35026 80.0353 1.17509 80.1938 0.892667C80.3523 0.610245 80.3189 0.0489788 80.0806 0.00607935C79.6814 -0.0654197 79.3704 0.508956 79.3811 0.929609H79.3799Z" fill="#2D4AB4"/>
<path d="M75.3371 4.56886C75.1214 4.45208 74.8139 4.44136 74.5684 4.51166C74.323 4.58197 74.1716 4.99428 74.3599 5.13728C74.4266 5.18852 74.5184 5.22785 74.6113 5.23142C74.8258 5.24095 75.0415 5.16946 75.2429 5.11345C75.4443 5.05744 75.579 4.95257 75.579 4.82388C75.579 4.73093 75.4479 4.62844 75.3371 4.56886Z" fill="#2D4AB4"/>
<path d="M61.439 4.3683L59.2043 2.28213C57.2495 0.458268 54.2056 0.596774 52.4188 2.59224L44.256 11.7054C42.4693 13.7009 42.605 16.8081 44.5598 18.632L45.0221 19.0634L46.6431 17.2543L46.1809 16.8228C45.2034 15.9109 45.135 14.3567 46.0296 13.3589L54.1924 4.24573C55.0857 3.248 56.6083 3.17813 57.5857 4.09129L59.8203 6.17746C60.7978 7.08939 60.8662 8.6436 59.9716 9.64133L53.5223 16.8412L51.8088 18.7545L49.0039 21.8862C50.6237 22.2478 52.384 21.7453 53.5812 20.4093L61.744 11.2961C63.5307 9.30059 63.395 6.19339 61.4402 4.36953L61.439 4.3683Z" fill="#1B1B1B"/>
<path d="M42.4241 10.1065C41.9149 9.84581 38.6442 9.14634 37.532 9.32091C36.4187 9.4943 36.9788 10.097 37.3145 10.2421C37.429 10.2917 37.9718 10.4285 38.6581 10.5889L32.6955 15.6432C32.8101 11.4063 32.9073 6.99251 32.9895 2.44421C33.2452 2.37816 33.4802 2.31565 33.685 2.26375C34.9639 1.93701 34.6179 1.2057 33.7533 1.03703C32.8888 0.868356 30.2385 1.30243 28.9017 1.80255C27.565 2.30267 27.8972 2.91249 28.8994 3.10947C29.2061 3.16963 29.6552 3.14368 30.1656 3.07055C29.8878 11.3851 29.6378 19.2679 29.5741 26.4336C29.0244 26.502 28.5881 26.5881 28.3948 26.6943C27.6634 27.0953 28.0847 27.6132 28.5626 27.8939C29.0395 28.1746 33.1376 27.8479 33.9755 27.4999C34.8134 27.152 34.7845 26.2815 34.0369 26.2307C33.7822 26.2142 33.1307 26.2154 32.3541 26.2414C32.4351 24.1524 32.5092 22.0009 32.5775 19.7952C36.3585 22.3406 37.7253 23.1628 40.1534 24.8011C40.3976 24.2633 40.7228 23.7608 41.1256 23.3102C38.4463 21.4406 37.0448 20.3295 33.8482 17.5977C36.6143 14.9037 38.6824 12.8819 40.6974 11.0407C41.4103 11.1893 41.9994 11.3002 42.173 11.3084C42.6764 11.3308 42.8442 11.2188 42.9403 11.0183C43.1023 10.6786 42.9357 10.3707 42.4264 10.11L42.4241 10.1065Z" fill="#1B1B1B"/>
<path d="M59.4413 16.3682L58.979 15.9368L57.3578 17.746L57.8202 18.1775C58.7976 19.0895 58.8661 20.6438 57.9715 21.6416L49.8082 30.7553C48.9147 31.7531 47.3921 31.823 46.4146 30.9098L44.1799 28.8235C43.2024 27.9115 43.1339 26.3572 44.0285 25.3594L51.2888 17.2545L52.1918 16.2457L54.997 13.1138C53.3771 12.7522 51.6166 13.2547 50.4194 14.5908L42.2561 23.7046C40.4693 25.7002 40.605 28.8075 42.5599 30.6315L44.7947 32.7178C46.7496 34.5418 49.7938 34.4032 51.5806 32.4077L59.7439 23.2939C61.5307 21.2983 61.395 18.191 59.4401 16.367L59.4413 16.3682Z" fill="#2D4AB4"/>
<path d="M119.396 26.3998C118.749 27.0367 118.897 28.0545 119.822 28.6058C120.739 29.152 121.944 29.1419 122.59 28.505C123.237 27.8681 123.135 26.7787 122.164 26.299C121.577 26.0098 120.043 25.7629 119.396 26.3998Z" fill="#1B1B1B"/>
</svg>
