<svg width="26" height="24" viewBox="0 0 26 24" fill="none" xmlns="http://www.w3.org/2000/svg">
<path d="M8.875 15C11.5674 15 13.75 12.8174 13.75 10.125C13.75 7.43261 11.5674 5.25 8.875 5.25C6.18261 5.25 4 7.43261 4 10.125C4 12.8174 6.18261 15 8.875 15Z" stroke="#576EC3" stroke-width="2" stroke-linecap="round" stroke-linejoin="round"/>
<path d="M1.95898 18.75C2.70813 17.5982 3.73311 16.6517 4.94086 15.9965C6.14861 15.3412 7.50089 14.998 8.87492 14.998C10.249 14.998 11.6012 15.3412 12.809 15.9965C14.0167 16.6517 15.0417 17.5982 15.7909 18.75" stroke="#576EC3" stroke-width="2" stroke-linecap="round" stroke-linejoin="round"/>
<path d="M17.125 15C18.499 14.9992 19.8513 15.3418 21.0592 15.9967C22.267 16.6517 23.292 17.5981 24.0409 18.75" stroke="#576EC3" stroke-width="2" stroke-linecap="round" stroke-linejoin="round"/>
<path d="M15.3147 5.59687C15.9816 5.3309 16.6989 5.2155 17.4156 5.25893C18.1322 5.30235 18.8304 5.50352 19.4602 5.84806C20.0901 6.19261 20.6361 6.67202 21.0592 7.25204C21.4823 7.83206 21.7721 8.49838 21.9078 9.20338C22.0435 9.90837 22.0219 10.6346 21.8444 11.3303C21.6669 12.026 21.3379 12.6738 20.881 13.2276C20.4241 13.7814 19.8505 14.2274 19.2012 14.5338C18.5519 14.8402 17.843 14.9994 17.125 15" stroke="#576EC3" stroke-width="2" stroke-linecap="round" stroke-linejoin="round"/>
</svg>
