<svg width="24" height="24" viewBox="0 0 24 24" fill="none" xmlns="http://www.w3.org/2000/svg">
<path d="M6 15.75V13.5C6 13.1022 6.15804 12.7206 6.43934 12.4393C6.72064 12.158 7.10218 12 7.5 12H16.5C16.8978 12 17.2794 12.158 17.5607 12.4393C17.842 12.7206 18 13.1022 18 13.5V15.75" stroke="#576EC3" stroke-width="2" stroke-linecap="round" stroke-linejoin="round"/>
<path d="M12 12V8.25" stroke="#576EC3" stroke-width="2" stroke-linecap="round" stroke-linejoin="round"/>
<path d="M6 15.75C7.24264 15.75 8.25 16.7574 8.25 18C8.25 19.2426 7.24264 20.25 6 20.25C4.75736 20.25 3.75 19.2426 3.75 18C3.75 16.7574 4.75736 15.75 6 15.75Z" stroke="#576EC3" stroke-width="2" stroke-linecap="round" stroke-linejoin="round"/>
<path d="M12 3.75C13.2426 3.75 14.25 4.75736 14.25 6C14.25 7.24264 13.2426 8.25 12 8.25C10.7574 8.25 9.75 7.24264 9.75 6C9.75 4.75736 10.7574 3.75 12 3.75Z" stroke="#576EC3" stroke-width="2" stroke-linecap="round" stroke-linejoin="round"/>
<path d="M18 15.75C19.2426 15.75 20.25 16.7574 20.25 18C20.25 19.2426 19.2426 20.25 18 20.25C16.7574 20.25 15.75 19.2426 15.75 18C15.75 16.7574 16.7574 15.75 18 15.75Z" stroke="#576EC3" stroke-width="2" stroke-linecap="round" stroke-linejoin="round"/>
</svg>
