<svg width="24" height="24" viewBox="0 0 24 24" fill="none" xmlns="http://www.w3.org/2000/svg">
<path d="M13.2544 6.06377L14.2856 5.03252C14.6915 4.62654 15.1734 4.30449 15.7037 4.08477C16.2341 3.86504 16.8025 3.75195 17.3766 3.75195C17.9506 3.75195 18.5191 3.86504 19.0494 4.08477C19.5798 4.30449 20.0616 4.62654 20.4675 5.03252C20.8735 5.43838 21.1955 5.92025 21.4153 6.4506C21.635 6.98095 21.7481 7.54939 21.7481 8.12346C21.7481 8.69752 21.635 9.26596 21.4153 9.79631C21.1955 10.3267 20.8735 10.8085 20.4675 11.2144L18.1819 13.5L17.2125 14.4694C16.8062 14.8758 16.3237 15.1981 15.7926 15.4178C15.2616 15.6376 14.6925 15.7505 14.1178 15.75C13.5431 15.7496 12.9741 15.6359 12.4434 15.4153C11.9127 15.1948 11.4307 14.8717 11.025 14.4647C10.605 14.0449 10.2753 13.5437 10.0561 12.9919C9.83681 12.44 9.73265 11.8492 9.75 11.2556" stroke="white" stroke-width="2" stroke-linecap="round" stroke-linejoin="round"/>
<path d="M10.7456 17.9362L9.71439 18.9674C9.30805 19.3738 8.82556 19.6961 8.29453 19.9159C7.76351 20.1356 7.19436 20.2485 6.61967 20.2481C6.04497 20.2477 5.47599 20.1339 4.9453 19.9134C4.41461 19.6928 3.93261 19.3698 3.52689 18.9628C2.70938 18.1424 2.25081 17.0311 2.25186 15.873C2.25292 14.7148 2.71351 13.6044 3.53251 12.7856L6.78751 9.53057C7.19338 9.12458 7.67525 8.80253 8.2056 8.58281C8.73595 8.36309 9.30439 8.25 9.87845 8.25C10.4525 8.25 11.021 8.36309 11.5513 8.58281C12.0817 8.80253 12.5635 9.12458 12.9694 9.53057C13.3911 9.95034 13.7223 10.4521 13.9425 11.0048C14.1628 11.5576 14.2674 12.1496 14.25 12.7443" stroke="white" stroke-width="2" stroke-linecap="round" stroke-linejoin="round"/>
</svg>
