<svg width="653" height="181" viewBox="0 0 653 181" fill="none" xmlns="http://www.w3.org/2000/svg">
<path d="M621.181 122.722C618.724 122.35 614.317 123.616 609.684 125.499C588.972 113.526 581.637 108.752 560.191 93.1268C574.497 78.1058 585.192 66.8258 595.642 56.5284C599.535 57.1456 602.751 57.5991 603.691 57.5928C606.424 57.5928 607.302 56.9504 607.772 55.8545C608.568 54.0028 607.597 52.3968 604.776 51.1372C601.955 49.8776 584.095 46.9427 578.114 48.1393C572.133 49.3359 575.305 52.4157 577.155 53.1085C577.788 53.3416 580.759 53.9399 584.508 54.6264L553.446 83.0435C553.057 60.4143 552.524 36.8468 551.885 12.5675C553.251 12.1519 554.511 11.7614 555.602 11.4339C562.448 9.38068 560.398 5.56402 555.677 4.87123C550.957 4.17844 536.72 7.14485 529.605 10.1365C522.49 13.1281 524.439 16.3023 529.906 17.1085C531.58 17.3541 533.999 17.1085 536.745 16.592C537.228 61.0127 537.755 103.116 539.121 141.358C536.169 141.855 533.824 142.422 532.802 143.033C528.94 145.351 531.348 148.009 533.993 149.394C536.645 150.78 558.737 148.034 563.188 145.968C567.639 143.902 567.275 139.273 563.213 139.185C561.827 139.153 558.304 139.323 554.104 139.651C554.041 128.484 553.928 116.978 553.772 105.188C576.766 118.218 584.145 121.834 599.334 130.506C597.046 131.81 595.122 133.063 593.899 134.071C588.514 138.517 593.611 140.407 596.288 139.871C601.027 138.92 616.906 132.899 622.993 129.542C629.074 126.186 624.611 123.244 621.156 122.728L621.181 122.722Z" fill="#1B1B1B"/>
<path d="M430.994 64.9796C427.955 64.328 409.773 65.1884 404.134 67.6177C398.496 70.0471 402.261 72.4069 404.223 72.6979C404.778 72.7801 406.96 72.7675 409.867 72.6979C407.565 96.2767 406.443 115.851 405.831 127.017C400.956 127.194 396.611 127.599 395.084 128.403C391.338 130.377 393.337 133.249 395.665 134.875C397.992 136.494 418.551 135.729 422.815 134.065C427.078 132.401 427.122 127.732 423.395 127.283C422.361 127.156 420.002 127.036 417.057 126.973C420.002 109.221 421.743 92.1329 423.433 72.1728C427.248 71.9704 430.37 71.7426 431.272 71.5528C433.959 70.9771 434.696 70.1673 434.93 68.9906C435.327 67.0041 434.041 65.6312 431.001 64.9796H430.994Z" fill="#1B1B1B"/>
<path d="M417.707 148.341C416.184 144.873 411.665 142.338 411.102 148.978C411.033 149.816 410.913 151.456 410.824 153.512C400.737 153.694 372.092 154.274 351.753 155.428C356.828 114.165 362.618 75.9029 368.357 30.2318C371.922 29.8724 374.911 29.4184 376.365 28.895C381.023 27.2304 381.067 22.5832 376.997 22.1355C372.927 21.6878 350.192 21.2905 346.109 23.2579C342.026 25.2252 339.643 30.0931 346.741 30.9696C348.056 31.1335 350.603 31.1713 353.693 31.102C350.78 49.861 339.896 119.808 333.891 156.954C332.273 157.2 331.085 157.465 330.459 157.743C323.349 160.895 321.244 169.269 328.576 169.761C335.484 170.221 394.751 164.843 410.78 163.468C410.843 164.855 410.951 166.198 411.109 167.428C413.447 175.795 418.744 169.937 419.692 167.428C420.64 164.918 419.237 151.809 417.713 148.341H417.707Z" fill="#1B1B1B"/>
<path d="M634.98 141.302C631.747 145.335 632.485 151.781 637.112 155.273C641.696 158.732 647.718 158.668 650.951 154.634C654.184 150.601 653.677 143.701 648.818 140.663C645.886 138.832 638.213 137.268 634.98 141.302Z" fill="#1B1B1B"/>
<path d="M514.335 158.502C514.082 158.457 513.848 158.419 513.602 158.375C522.13 112.165 526.79 85.2746 507.589 81.967C494.186 79.6524 476.136 98.2896 468.714 106.764C470.301 97.3347 471.844 87.7979 473.336 78.1473C475.82 77.4706 478.102 76.8319 479.993 76.3196C488.648 73.9733 485.556 70.2801 479.354 69.8121C473.152 69.3378 455.008 72.9172 446.106 76.2121C437.204 79.507 440.094 82.5615 447.282 83.1117C449.621 83.2888 452.991 82.8777 456.765 82.1631L456.386 82.4983C451.227 106.075 447.307 127.773 447.124 143.779C444.393 143.842 441.623 144.083 438.475 144.601C429.573 146.056 433.424 148.883 436.819 150.299C440.207 151.716 457.713 152.614 463.207 152.31C468.701 152.013 474.353 145.468 463.789 144.658C463.163 144.608 462.563 144.563 461.968 144.519C463.176 138.144 464.358 131.706 465.515 125.218C472.672 115.687 491.329 92.3449 502.228 92.4524C506.976 92.4967 499.611 128.645 492.03 155.896C491.101 155.915 490.153 155.947 489.154 156.004C480.17 156.535 483.761 159.608 487.01 161.284C490.26 162.96 507.602 165.515 513.096 165.762C518.59 166.008 524.779 160.304 514.341 158.514L514.335 158.502Z" fill="#1B1B1B"/>
<path d="M138.169 156.486C137.914 156.455 137.673 156.423 137.425 156.392C143.816 109.962 147.227 82.9668 127.801 80.5643C114.245 78.8869 96.9975 98.2899 89.9461 107.08C91.0959 97.6152 92.1949 88.043 93.2431 78.3635C95.7079 77.569 97.9694 76.8312 99.8371 76.2322C108.413 73.4955 105.141 69.9579 98.8905 69.775C92.6396 69.5922 74.5983 74.0062 65.819 77.7014C57.0397 81.3966 60.0826 84.3099 67.3246 84.518C69.6814 84.5874 73.0482 84.0199 76.8026 83.1307L76.4342 83.4839C72.3622 107.213 69.4527 128.999 70.018 144.953C67.2801 145.142 64.5104 145.514 61.3722 146.176C52.5103 148.043 56.5061 150.679 59.9746 151.927C63.4431 153.176 81.0525 153.251 86.5538 152.703C92.0552 152.148 97.4167 145.363 86.7825 145.054C86.1536 145.035 85.5438 145.016 84.9466 144.997C85.8614 138.59 86.7444 132.127 87.602 125.607C94.3357 115.782 111.964 91.6625 122.91 91.2526C127.68 91.0761 121.982 127.423 115.655 154.922C114.728 154.986 113.775 155.061 112.777 155.168C103.788 156.114 107.53 159.009 110.871 160.528C114.213 162.048 131.74 163.776 137.26 163.77C142.781 163.757 148.727 157.785 138.169 156.493V156.486Z" fill="#1B1B1B"/>
<path d="M35.9771 21.8576C29.6063 21.0822 10.0972 25.6084 4.85955 28.3506C-0.378129 31.0992 -1.32871 34.6735 2.85135 35.6695C4.49442 36.0604 6.57816 36.0414 15.0516 35.2724C15.7504 75.2708 15.5426 125.778 15.9896 158.439C7.8561 158.918 6.96217 159.214 2.70656 160.311C-3.26766 161.855 1.80634 169.779 6.78591 170.296C19.6849 171.633 33.9123 169.924 45.5082 167.832C56.3109 165.884 51.8286 160.046 45.0738 158.546C43.0153 158.092 40.6419 157.783 35.4294 157.777C33.3835 119.31 32.1874 79.1856 31.2431 33.4253C38.4512 32.5428 40.8371 31.9187 43.3741 31.2694C50.9158 29.3467 42.3417 22.6204 35.9645 21.845L35.9771 21.8576Z" fill="#1B1B1B"/>
<path d="M416.29 23.1343C424.83 16.3063 416.417 7.73501 423.061 8.68878C428.696 9.49727 421.337 19.136 423.289 20.374C425.5 21.7762 431.727 19.4013 436.054 13.4703C436.054 13.4703 440.116 7.80449 441.903 4.00205C443.691 0.199611 446.773 0.136454 447.935 1.37446C449.097 2.61246 449.982 6.81282 445.295 10.6721C442.667 12.8386 441.183 13.3439 438.568 16.4453C435.284 20.3424 435.296 23.0269 437.058 23.9301C438.821 24.8333 443.495 25.6166 445.497 22.9953C447.948 19.7929 449.956 23.2669 449.312 24.8586C448.201 27.6062 445.244 26.6651 440.577 28.3389C436.522 29.798 435.1 32.5961 435.056 34.4468C434.955 38.5272 438.739 35.7859 441.594 35.9564C444.449 36.127 446.691 39.6262 443.046 40.1505C439.402 40.6747 434.778 37.7755 433.123 41.957C432.46 43.6308 431.765 46.17 433.022 48.2354C434.785 51.1346 432.005 53.3453 429.447 51.1725C427.634 49.6313 426.757 49.1576 424.906 48.248C423.819 47.7175 421.388 47.1995 419.6 48.0775C416.878 49.4039 416.29 53.0863 414.358 54.3117C413.183 55.057 411.73 54.2486 411.351 52.3158C410.972 50.383 413.334 49.3913 412.279 47.1237C411.503 45.4499 410.145 43.9719 407.909 43.814C405.673 43.656 403.083 43.915 400.026 45.1088C396.969 46.3026 395.939 48.6965 393.008 47.9827C388.53 46.89 388.309 42.2728 393.343 40.3147C395.92 39.3104 401.794 40.0873 403.986 38.6914C405.824 37.5166 407.473 36.0575 408.692 34.0931C409.911 32.1287 410.404 29.8422 409.21 27.2336C408.016 24.6249 406.936 24.1638 403.127 22.4016C399.318 20.6393 400.822 15.0557 405.041 18.2959C407.359 20.0771 407.479 22.2816 409.803 23.9554C411.654 25.2818 413.473 25.3576 416.278 23.1216L416.29 23.1343Z" fill="#2D4AB4"/>
<path d="M431.734 54.6465C431.298 55.6192 432.208 56.8383 433.048 57.3626C433.995 57.9626 434.747 58.3163 435.688 58.31C435.947 58.31 436.219 58.2784 436.421 58.1079C436.635 57.931 436.736 57.6215 436.755 57.3247C436.825 56.3393 436.023 55.0634 435.309 54.5202C434.456 53.8696 433.945 53.718 433.142 53.8065C432.492 53.8823 431.911 54.2423 431.728 54.6465H431.734Z" fill="#2D4AB4"/>
<path d="M446.445 35.7355C447.418 35.8555 448.441 35.9755 449.344 35.6028C450.247 35.2302 450.961 34.188 450.607 33.2721C450.323 32.5205 449.42 32.1415 448.624 32.2299C447.828 32.3183 447.114 32.7668 446.476 33.2595C445.99 33.6385 445.491 34.1185 445.46 34.7312C445.428 35.3439 445.902 35.5902 446.445 35.7418V35.7355Z" fill="#2D4AB4"/>
<path d="M421.274 5.48012C421.331 7.70979 424.748 6.78128 425.588 5.28431C426.428 3.78734 426.251 0.812346 424.988 0.584958C422.872 0.205977 421.223 3.25045 421.28 5.48012H421.274Z" fill="#2D4AB4"/>
<path d="M399.842 24.7702C398.699 24.1512 397.069 24.0943 395.768 24.467C394.467 24.8397 393.665 27.0251 394.663 27.7831C395.016 28.0547 395.503 28.2631 395.996 28.2821C397.132 28.3326 398.276 27.9536 399.343 27.6568C400.411 27.3599 401.124 26.8041 401.124 26.1219C401.124 25.6292 400.43 25.086 399.842 24.7702Z" fill="#2D4AB4"/>
<path d="M327.805 25.0922L316.073 14.3634C305.81 4.98348 289.829 5.6958 280.449 15.9582L237.594 62.8261C228.214 73.0885 228.926 89.0683 239.189 98.4482L241.616 100.667L250.127 91.3629L247.7 89.144C242.568 84.454 242.209 76.461 246.905 71.3298L289.76 24.4619C294.45 19.3307 302.444 18.9714 307.575 23.6676L319.307 34.3965C324.438 39.0864 324.798 47.0795 320.101 52.2107L286.242 89.2385L277.246 99.0786L262.52 115.184C271.024 117.044 280.266 114.46 286.551 107.589L329.406 60.7207C338.786 50.4583 338.074 34.4784 327.811 25.0985L327.805 25.0922Z" fill="#1B1B1B"/>
<path d="M227.852 52.6747C225.068 51.2748 207.189 47.5184 201.108 48.4559C195.022 49.3871 198.084 52.624 199.919 53.4032C200.545 53.6692 203.513 54.4041 207.264 55.2656L174.669 82.4091C175.295 59.6554 175.827 35.9515 176.276 11.5255C177.674 11.1708 178.958 10.835 180.078 10.5563C187.069 8.80165 185.178 4.87423 180.451 3.96839C175.725 3.06255 161.237 5.39367 153.929 8.07952C146.622 10.7654 148.438 14.0403 153.917 15.0982C155.593 15.4212 158.048 15.2819 160.838 14.8892C159.32 59.5414 157.953 101.875 157.605 140.357C154.6 140.725 152.215 141.187 151.158 141.757C147.16 143.911 149.463 146.692 152.076 148.2C154.682 149.707 177.086 147.953 181.666 146.084C186.247 144.215 186.089 139.54 182.002 139.268C180.61 139.179 177.048 139.186 172.802 139.325C173.245 128.106 173.65 116.552 174.023 104.707C194.693 118.377 202.165 122.792 215.439 131.59C216.774 128.702 218.551 126.003 220.753 123.584C206.107 113.543 198.445 107.576 180.97 92.9054C196.091 78.4373 207.397 67.5799 218.412 57.6917C222.31 58.4898 225.53 59.0853 226.479 59.1296C229.231 59.25 230.149 58.6482 230.674 57.5713C231.559 55.747 230.648 54.0937 227.865 52.6937L227.852 52.6747Z" fill="#1B1B1B"/>
<path d="M315.817 90.0919L313.39 87.8728L304.879 97.1776L307.306 99.3967C312.438 104.087 312.797 112.08 308.1 117.212L265.243 164.083C260.552 169.214 252.558 169.573 247.427 164.877L235.694 154.147C230.562 149.457 230.203 141.464 234.9 136.332L273.016 94.6497L277.757 89.4615L292.484 73.3546C283.98 71.4949 274.737 74.0796 268.452 80.951L225.595 127.822C216.214 138.085 216.926 154.065 227.19 163.446L238.922 174.175C249.186 183.556 265.167 182.843 274.548 172.58L317.405 125.71C326.786 115.447 326.074 99.466 315.81 90.0856L315.817 90.0919Z" fill="#2D4AB4"/>
</svg>
